<?xml version="1.0" encoding="iso-8859-1"?>
<!-- Generator: Adobe Illustrator 18.0.0, SVG Export Plug-In . SVG Version: 6.00 Build 0)  -->
<!DOCTYPE svg PUBLIC "-//W3C//DTD SVG 1.1//EN" "http://www.w3.org/Graphics/SVG/1.1/DTD/svg11.dtd">
<svg version="1.1" id="Capa_1" xmlns="http://www.w3.org/2000/svg" xmlns:xlink="http://www.w3.org/1999/xlink" x="0px" y="0px"
	 viewBox="0 0 457.018 457.018" style="enable-background:new 0 0 457.018 457.018;" xml:space="preserve">
<path d="M432.55,312.871l-18.492-40.534c-0.505-1.106-1.395-1.99-2.504-2.488l-46.451-20.816c-1.293-0.58-2.77-0.584-4.064-0.011
	l-49.638,21.918c-4.712-1.195-9.516-1.875-14.381-2.036l1.917-34.053c0.098-1.735-0.713-3.397-2.142-4.389l-30.502-21.167
	c12.17-15.86,26.644-27.483,35.513-27.566c1.503-0.014,10.013,2.325,12.239,2.394c2.292,0.071,4.359-1.587,4.877-3.919
	c0.598-2.696-1.103-5.366-3.799-5.964c0,0-9.51-2.121-9.569-2.132c-8.737-2.146-18.462-21.669-22.678-45.588
	c-4.039-22.913-1.801-42.84,5.323-47.39l9.139-5.82c2.328-1.483,3.015-4.574,1.53-6.903c-1.482-2.329-4.572-3.015-6.903-1.531
	l-9.126,5.813c-0.002,0.001-0.004,0.002-0.005,0.003c-1.55,0.987-3.737,1.488-6.501,1.488c-16.904,0-48.436-18.628-63.659-37.607
	c-5.429-6.768-8.043-12.899-7.171-16.82c0.058-0.261,2.518-11.668,2.518-11.668c0.598-2.696-1.104-5.366-3.799-5.964
	c-2.695-0.598-5.366,1.101-5.965,3.798l-2.779,12.528c-3.935,11.144-35.654,22.208-64.399,22.208
	c-14.374,0-24.816-2.923-27.935-7.82c-0.001-0.001-0.001-0.002-0.001-0.002l-5.815-9.13c-1.485-2.329-4.575-3.015-6.903-1.531
	c-2.329,1.483-3.016,4.574-1.531,6.903l5.812,9.125c0.002,0.002,0.003,0.005,0.004,0.007c3.436,5.395,0.479,18.316-7.534,32.919
	c-13.131,23.93-34.172,43.593-45.918,44.146c-1.626,0.077-11.157-2.252-11.157-2.252c-2.705-0.6-5.366,1.103-5.965,3.799
	c-0.598,2.696,1.104,5.366,3.799,5.964l9.76,2.165c8.689,2.346,18.311,21.758,22.495,45.522c4.039,22.935,1.796,42.877-5.335,47.424
	l-9.135,5.818c-2.328,1.483-3.015,4.574-1.53,6.903c0.953,1.497,2.569,2.314,4.222,2.314c0.919,0,1.849-0.253,2.682-0.783
	l9.143-5.824c1.554-0.983,3.743-1.483,6.512-1.483c16.979,0,48.604,18.632,63.847,37.616c4.972,6.191,7.563,11.841,7.269,15.739
	l-2.827,12.745c-0.598,2.696,1.104,5.366,3.799,5.964c0.365,0.081,0.729,0.12,1.088,0.12c2.293,0,4.359-1.587,4.877-3.918
	l2.426-10.935c0.112-0.271,0.204-0.554,0.27-0.85c2.565-11.6,35.257-23.418,64.777-23.418c11.876,0,20.988,2.078,25.35,5.651
	c-2.968-0.093-5.979,0.208-8.991,0.906c-0.717-0.466-1.465-0.896-2.261-1.252c-2.133-0.955-4.393-1.44-6.717-1.44
	c-2.173,0-4.276,0.439-6.218,1.233c-15.259-5.038-24.296,2.199-27.01,6.956c-0.7,1.225-0.85,2.689-0.412,4.03
	c0.438,1.341,1.422,2.435,2.709,3.012l14.195,6.361c-1.146,1.826-2.188,3.734-3.083,5.729c-0.892,1.992-1.623,4.04-2.224,6.113
	l-14.193-6.36c-1.287-0.577-2.758-0.582-4.051-0.017c-1.292,0.566-2.285,1.652-2.734,2.989c-1.743,5.194-1.132,16.76,12.797,24.798
	c1.453,4.086,4.492,7.6,8.752,9.509c0.793,0.355,1.609,0.623,2.435,0.848c3.633,6.646,9.036,11.711,15.764,14.727
	c4.299,1.926,8.869,2.895,13.536,2.895c0.658,0,1.32-0.035,1.981-0.074l-28.59,15.365l-17.842-7.994l-19.625-25.461
	c-1.685-2.186-4.825-2.594-7.013-0.908c-2.187,1.686-2.593,4.825-0.907,7.012l20.393,26.458c0.504,0.654,1.162,1.173,1.916,1.511
	l21.234,9.514c0.651,0.292,1.348,0.437,2.044,0.437c0.815,0,1.63-0.2,2.367-0.596l31.613-16.99c0.13,0.324,0.245,0.651,0.381,0.974
	c1.801,4.297,4.059,8.348,6.697,12.127l-22.845,22.802l-39.194-9.419l-37.428-32.692c-2.08-1.816-5.238-1.604-7.055,0.477
	c-1.816,2.08-1.604,5.238,0.477,7.055l38.354,33.501c0.608,0.531,1.336,0.907,2.121,1.096l43.109,10.361
	c0.387,0.093,0.779,0.138,1.168,0.138c1.309,0,2.584-0.514,3.532-1.461l24.125-24.08c3.33,3.49,7.05,6.633,11.11,9.372
	l16.674,51.622c0.435,1.348,1.421,2.447,2.713,3.026l46.453,20.816c0.648,0.29,1.346,0.437,2.045,0.437
	c0.497,0,0.996-0.074,1.479-0.224l42.56-13.179c2.639-0.817,4.114-3.618,3.298-6.255c-0.816-2.639-3.619-4.113-6.255-3.297
	l-40.759,12.621l-42.702-19.135l-12.814-39.671c3.546,1.449,7.159,2.598,10.828,3.432l13.16,23.809
	c0.524,0.949,1.343,1.701,2.331,2.145l31.047,13.912c0.651,0.292,1.349,0.437,2.045,0.437c0.769,0,1.535-0.177,2.239-0.529
	l35.424-17.743c2.469-1.237,3.468-4.241,2.232-6.71c-1.237-2.47-4.24-3.468-6.71-2.232l-33.304,16.682l-27.359-12.259l-8.783-15.891
	c0.878,0.034,1.756,0.069,2.637,0.069c24.777,0,47.014-13.897,56.65-35.405c6.733-15.025,6.827-31.926,0.263-47.589
	c-3.16-7.542-7.695-14.351-13.325-20.184l17.683-4.016l27.358,12.259l9.714,35.958c0.602,2.229,2.62,3.698,4.824,3.698
	c0.432,0,0.87-0.057,1.307-0.174c2.666-0.72,4.243-3.465,3.523-6.131l-10.332-38.248c-0.392-1.449-1.413-2.646-2.782-3.259
	l-31.047-13.911c-0.989-0.442-2.096-0.553-3.152-0.313l-26.53,6.025c-3.06-2.177-6.32-4.118-9.763-5.802l38.134-16.838l42.7,19.136
	l17.709,38.818c0.839,1.84,2.653,2.926,4.552,2.926c0.694,0,1.399-0.145,2.072-0.452
	C432.589,318.349,433.696,315.383,432.55,312.871z M288.795,237.083l-1.815,32.235c-5.013,0.6-9.871,1.762-14.481,3.447
	l-8.364-34.924c-0.361-1.509-1.402-2.764-2.818-3.398l-8.416-3.77c0.713-1.454,1.47-2.931,2.296-4.437
	c1.64-2.989,3.42-5.93,5.301-8.791L288.795,237.083z M252.773,265.765l-4.981-7.822c-2.076-3.598-1.571-10.045,1.217-18.057
	l5.976,2.677l7.557,31.552C259.831,270.698,256.546,267.879,252.773,265.765z M233.089,234.86l4.053-0.29l2.722,1.219
	c-0.771,2.146-1.455,4.35-2.001,6.565L233.089,234.86z M149.484,221.302c-8.936-11.128-26.249-23.301-40.92-27.76l23.672-15.076
	c0.064-0.021,6.676-0.954,19.949,10.556c3.15,2.732,3.715,4.894,3.795,5.492l-6.065,27.347
	C149.769,221.673,149.635,221.489,149.484,221.302z M101.911,160.716c-1.537-8.729-4.266-18.008-8.182-25.339l27.736,6.152
	c1.227,0.566,4.233,5.137,5.839,13.44c1.664,8.611,0.492,14.159-0.401,15.036v0c-0.005,0.002-0.01,0.006-0.015,0.008l-0.003,0.002
	l-23.896,15.219C104.181,175.625,102.697,165.183,101.911,160.716z M125.34,84.298l15.225,23.903
	c0.001,0.002,0.002,0.004,0.003,0.006c0.425,1.214-0.661,6.152-5.226,12.801c-5.149,7.5-10.268,10.745-11.689,10.755
	c-0.024-0.005-27.858-6.172-27.858-6.172c9.146-6.818,18.159-18.069,24.102-28.9C121.692,93.419,123.84,89,125.34,84.298z
	 M193.718,73.72c8.919,11.119,26.175,23.281,40.793,27.748l-23.689,15.088c-0.061,0.02-0.28,0.08-0.735,0.08
	c-4.523,0-13.655-5.078-19.16-10.653c-3.118-3.158-3.804-5.163-3.812-5.523c0.001-0.006,0.003-0.012,0.004-0.019
	c0.019-0.084,0.016-0.168,0.029-0.252l6.027-27.174C193.358,73.251,193.528,73.483,193.718,73.72z M241.151,134.277
	c1.54,8.742,4.274,18.037,8.2,25.375c0,0-27.727-6.159-27.755-6.165c-1.23-0.575-4.233-5.145-5.84-13.433
	c-1.668-8.61-0.498-14.158,0.396-15.036l23.917-15.233C238.882,119.386,240.363,129.815,241.151,134.277z M243.769,226.581
	l-3.686-1.652c-0.753-0.337-1.579-0.481-2.401-0.424l-10.698,0.767l-0.378-0.594c-0.001-0.001-0.002-0.003-0.003-0.004
	c-1.309-2.054-1.071-6.953,1.737-13.998l22.787,2.855c-1.677,2.62-3.252,5.262-4.696,7.895
	C245.583,222.969,244.677,224.711,243.769,226.581z M137.301,154.034c-0.34-1.927-1.121-5.673-2.569-9.563l23.929,5.308
	l-20.514,13.065C138.116,159.376,137.674,156.15,137.301,154.034z M205.758,140.977c0.34,1.93,1.123,5.682,2.575,9.577
	l-23.938-5.309l20.515-13.066C204.942,135.642,205.385,138.862,205.758,140.977z M179.025,136.808l5.192-23.409
	c4.084,4.025,9.639,7.935,15.153,10.451L179.025,136.808z M169.261,134.643l-12.96-20.348c0.117,0.001,0.228,0.007,0.346,0.007
	c4.489,0,11.568-0.855,17.799-3.031L169.261,134.643z M147.748,119.481l13.079,20.535l-23.917-5.305
	c4.194-4.146,7.655-9.243,9.578-12.747C146.919,121.18,147.34,120.34,147.748,119.481z M164.032,158.213l-5.18,23.351
	c-4.09-4.01-9.64-7.899-15.15-10.402L164.032,158.213z M173.796,160.379l12.954,20.339c-0.124-0.001-0.241-0.007-0.367-0.007
	c-4.482,0-11.552,0.856-17.77,3.033L173.796,160.379z M182.23,155.007l23.915,5.305c-4.194,4.148-7.656,9.247-9.58,12.751
	c-0.43,0.783-0.85,1.621-1.257,2.478L182.23,155.007z M216.763,209.225l1.397,0.175c-0.153,0.439-0.301,0.88-0.442,1.325
	L216.763,209.225z M222.354,199.847l-12.566-1.574l-7.301-11.463c-0.42-1.221,0.67-6.158,5.233-12.802
	c5.143-7.486,10.25-10.732,11.685-10.756l27.857,6.179c-9.146,6.823-18.157,18.073-24.101,28.904
	C222.899,198.814,222.628,199.323,222.354,199.847z M177.326,98.283c-1.154,2.111-10.438,6.02-20.68,6.02
	c-5.139,0-7.297-1.086-7.609-1.413l-15.118-23.737c3.164,0.443,6.355,0.609,9.275,0.609c12.599,0,28.859-3.053,40.215-8.906
	L177.326,98.283z M165.634,197.178c0.008-0.028,0.022-0.052,0.03-0.08c0.035-0.113,0.067-0.229,0.095-0.346
	c1.014-2.085,10.341-6.041,20.624-6.041c5.164,0,7.326,1.095,7.637,1.423c0.002,0.003,0.004,0.006,0.006,0.009
	c0.001,0.002,0.003,0.005,0.004,0.007c0.001,0.001,0.001,0.002,0.002,0.002c0.001,0.002,0.002,0.004,0.003,0.006
	c0.001,0.001,0.002,0.002,0.003,0.003c0.001,0.002,0.003,0.005,0.004,0.007c0.001,0,0.001,0.001,0.001,0.001
	c0.002,0.004,0.005,0.006,0.007,0.009l15.081,23.678c-3.179-0.447-6.385-0.614-9.318-0.614c-12.59,0-28.843,3.059-40.164,8.921
	L165.634,197.178z M257.577,204.26l-24.536-3.074c8.877-15.238,22.444-28.148,29.76-28.208c1.15-0.009,21.977,4.774,21.977,4.774
	C275.438,183.674,265.776,193.384,257.577,204.26z M273.027,128.256c2.385,13.531,7.093,28.872,13.978,39.747
	c0,0-21.251-4.723-21.298-4.732c-4.813-1.259-11.585-13.004-14.709-30.73c-2.946-16.723-0.757-29.232,3.063-31.668l18.251-11.625
	C269.963,100.775,270.74,115.28,273.027,128.256z M204.873,40.828c13.5,16.83,40.549,35.367,61.797,40.158l-17.98,11.451
	l-0.001,0.001c-0.829,0.528-2.125,0.808-3.748,0.808c-11.265,0-33.179-13.012-43.423-25.782c-3.466-4.32-5.234-8.252-4.73-10.518
	c0.048-0.218,0.077-0.436,0.096-0.652l4.49-20.239C202.41,37.615,203.571,39.206,204.873,40.828z M131.079,48.654
	c18.89,0,44.699-5.153,60.533-14.779l-4.754,21.434c-2.455,6.461-23.366,14.453-43.664,14.453c-11.23,0-16.867-2.563-18.293-4.767
	l-11.473-18.013C119.284,48.239,125.53,48.654,131.079,48.654z M95.942,73.936c3.084-5.621,6.932-13.68,8.897-21.825l11.605,18.221
	c0.004,0.006,0.006,0.012,0.01,0.018c1.734,2.724,0.761,10.438-5.325,21.532c-8.813,16.061-23.229,30.149-30.854,30.149
	c-0.317,0-22-4.76-22-4.76C72.271,108.334,86.705,90.767,95.942,73.936z M70.037,166.736c-2.38-13.515-7.076-28.835-13.946-39.708
	l21.338,4.733c4.805,1.34,11.526,13.047,14.634,30.689c2.948,16.739,0.757,29.26-3.066,31.698l-18.248,11.622
	C73.101,194.238,72.324,179.723,70.037,166.736z M138.392,254.195c-13.525-16.843-40.662-35.395-61.984-40.171
	c0,0,18.573-11.682,18.902-11.871c3.768-2.16,25.474,3.724,46.378,25.41c3.586,3.72,4.958,7.7,4.745,9.997l-4.696,21.17
	C140.74,257.247,139.628,255.735,138.392,254.195z M151.486,260.958l4.475-20.174c0.073-0.202,0.147-0.404,0.195-0.621
	c1.441-6.515,22.869-14.921,43.655-14.921c4.762,0,8.509,0.463,11.37,1.162l-6.821,0.489c-2.754,0.197-4.827,2.59-4.63,5.345
	c0.197,2.755,2.582,4.827,5.345,4.63l16.676-1.195l7.533,11.829c-5.66-1.199-11.669-1.598-17.013-1.598
	C193.293,245.903,167.334,251.153,151.486,260.958z M222.281,270.335c1.574,0.705,2.778,1.979,3.392,3.589
	c0.614,1.61,0.563,3.363-0.141,4.935c-1.039,2.318-3.351,3.816-5.891,3.816c-0.907,0-1.793-0.191-2.634-0.568
	c-1.572-0.705-2.776-1.979-3.39-3.588c-0.613-1.61-0.563-3.362,0.141-4.934c1.039-2.318,3.352-3.816,5.893-3.816
	C220.559,269.769,221.442,269.959,222.281,270.335z M210.793,311.751c-1.037,2.316-3.349,3.813-5.891,3.813
	c-0.907,0-1.793-0.191-2.632-0.566c-3.245-1.455-4.702-5.279-3.248-8.525c1.039-2.318,3.353-3.816,5.894-3.816
	c0.906,0,1.791,0.191,2.63,0.567c1.573,0.705,2.776,1.979,3.391,3.589C211.55,308.422,211.499,310.175,210.793,311.751z
	 M204.727,269.308c-0.029,0.063-0.063,0.124-0.093,0.188c-0.211,0.47-0.394,0.946-0.558,1.427l-3.22-1.442
	C201.955,269.269,203.247,269.194,204.727,269.308z M190.597,301.019c-0.25,0.443-0.488,0.894-0.699,1.364
	c-0.028,0.064-0.048,0.129-0.075,0.194c-1.063-1.024-1.861-2.035-2.432-2.995L190.597,301.019z M220.468,330.572
	c-3.336-1.496-6.215-3.735-8.532-6.595c3.48-1.647,6.353-4.493,7.983-8.138c1.798-4.01,1.927-8.48,0.361-12.587
	c-1.564-4.107-4.635-7.358-8.645-9.154c-1.111-0.498-2.258-0.861-3.428-1.102c0.234-0.609,0.482-1.215,0.751-1.814
	c0.271-0.603,0.559-1.194,0.858-1.778c0.956,0.71,1.988,1.33,3.101,1.829c2.134,0.958,4.396,1.443,6.723,1.443c0.001,0,0,0,0.001,0
	c6.474,0,12.368-3.818,15.016-9.726c1.622-3.621,1.87-7.614,0.755-11.377c3.616-0.172,7.146,0.469,10.436,1.911
	c0.913,1.312,2.347,2.057,3.843,2.135c2.402,1.661,4.471,3.788,6.162,6.298c-7.587,5.848-13.734,13.438-17.721,22.335
	c-3.999,8.924-5.637,18.509-4.948,28.104C228.771,332.943,224.439,332.35,220.468,330.572z M348.044,353.504
	c-8.028,17.917-26.683,29.494-47.525,29.494c-8.206,0-16.244-1.737-23.891-5.163c-13.517-6.057-24.006-16.661-29.536-29.86
	c-5.483-13.084-5.425-27.16,0.165-39.634c8.028-17.917,26.683-29.495,47.523-29.495c8.207,0,16.244,1.737,23.891,5.164
	c13.517,6.057,24.007,16.661,29.538,29.859C353.692,326.953,353.634,341.029,348.044,353.504z"/>
<g>
</g>
<g>
</g>
<g>
</g>
<g>
</g>
<g>
</g>
<g>
</g>
<g>
</g>
<g>
</g>
<g>
</g>
<g>
</g>
<g>
</g>
<g>
</g>
<g>
</g>
<g>
</g>
<g>
</g>
</svg>
